<svg width="2000" height="1922" viewBox="0 0 2000 1922" fill="none" xmlns="http://www.w3.org/2000/svg">
<mask id="path-1-inside-1_1_1436" fill="white">
<path fill-rule="evenodd" clip-rule="evenodd" d="M632.863 302.544C632.863 302.544 640.827 298.561 640.827 311.077C640.827 323.593 638.552 325.3 632.863 319.611C627.174 313.922 632.863 302.544 632.863 302.544ZM612.951 354.882C625.467 345.78 627.174 347.487 618.64 359.434C604.987 378.207 595.884 377.638 595.884 371.381C595.315 367.398 601.004 361.709 612.951 354.882ZM564.026 1399.38C566.301 1401.09 569.715 1398.25 565.163 1398.81C565.163 1399.38 564.595 1399.38 564.026 1399.38ZM478.691 1649.13C479.26 1647.99 475.277 1646.29 478.691 1649.13ZM683.495 232C686.339 232 695.442 234.845 704.544 238.258L706.251 238.827C715.353 241.671 724.456 244.516 729.007 244.516C739.247 244.516 764.847 247.36 764.847 261.014C764.847 270.685 773.95 271.254 783.621 272.392H784.759C788.741 272.961 792.155 273.53 795.568 274.668C806.946 279.219 810.928 281.494 821.169 287.752C831.409 294.01 841.649 306.526 854.734 312.215C867.818 317.904 949.74 337.815 957.705 337.815C965.669 337.815 1006.63 328.713 1017.44 345.211C1028.25 361.709 1041.33 368.536 1051 353.176C1060.68 337.815 1072.62 354.882 1080.59 361.709C1088.55 368.536 1112.45 379.914 1119.84 386.172C1127.24 392.43 1133.49 414.617 1155.68 435.097C1177.87 455.578 1182.42 453.871 1188.11 468.663C1193.8 483.454 1204.61 489.712 1217.12 499.383C1229.64 508.486 1221.67 521.57 1233.62 521.57C1245.57 521.57 1254.67 519.864 1254.67 527.828C1254.67 535.793 1258.08 530.104 1264.91 535.224C1267.76 536.931 1268.89 537.499 1269.46 537.499C1271.17 537.499 1272.31 538.068 1279.7 545.464C1291.65 557.411 1291.65 561.393 1291.65 568.22V568.789C1291.65 571.065 1290.51 574.478 1289.37 578.46L1288.8 579.598C1285.96 588.132 1282.55 596.096 1291.65 584.718C1304.73 568.789 1307.01 559.687 1316.11 559.687C1325.21 559.687 1339.44 568.789 1339.44 576.754C1339.44 584.718 1316.11 594.958 1316.11 612.594C1316.11 630.799 1291.08 655.831 1300.75 655.831C1310.42 655.831 1318.96 622.266 1324.08 617.714C1329.2 612.594 1324.65 606.336 1339.44 600.647C1354.23 594.958 1357.64 583.58 1365.04 600.647C1372.43 617.714 1374.14 620.559 1394.05 629.661C1413.96 638.764 1414.53 637.626 1421.93 656.4C1424.77 663.226 1428.19 666.071 1431.6 669.484L1432.17 670.053C1438.43 675.173 1445.82 681.431 1450.94 707.032C1458.91 747.993 1462.89 757.095 1460.61 768.473C1460.04 773.024 1450.94 779.282 1441.27 784.971L1440.13 785.54L1438.99 786.109C1427.05 793.505 1415.67 799.763 1421.93 802.607C1433.87 807.727 1447.53 798.056 1458.91 788.953C1470.28 779.851 1477.11 778.713 1473.7 739.459C1470.28 700.205 1470.28 685.982 1482.8 674.604C1495.88 663.226 1511.81 685.414 1511.81 687.689C1511.81 689.965 1524.33 695.654 1524.33 705.894C1524.33 712.721 1527.17 723.53 1532.29 738.89C1536.85 740.028 1540.83 745.148 1544.24 754.251C1549.36 767.335 1539.12 778.713 1544.24 778.713C1549.36 778.713 1565.86 774.162 1565.86 787.816C1565.86 793.505 1562.45 795.78 1559.6 797.487L1559.03 798.056C1559.03 798.056 1558.46 798.056 1558.46 798.625L1557.89 799.194C1554.48 801.469 1551.64 804.314 1556.19 813.416C1565.86 831.621 1585.2 840.723 1585.2 858.928C1585.2 877.133 1581.22 917.525 1573.25 923.783C1565.86 930.041 1531.16 928.334 1524.9 953.366C1518.64 977.828 1513.52 1001.72 1498.16 1010.26C1483.37 1018.79 1473.7 1027.32 1473.7 1039.84C1473.7 1052.35 1466.87 1047.8 1458.91 1050.08C1450.94 1052.35 1445.25 1051.22 1445.25 1068.28C1445.25 1085.35 1442.98 1101.85 1429.32 1116.07C1415.1 1130.29 1403.72 1122.33 1403.72 1137.12C1403.72 1142.81 1406.57 1143.95 1408.84 1145.09H1409.41C1412.26 1146.79 1413.96 1147.93 1404.29 1162.15C1387.22 1186.61 1385.52 1184.91 1379.26 1197.99C1373 1211.08 1362.19 1244.64 1347.4 1244.64C1332.61 1244.64 1333.18 1221.89 1324.65 1244.64C1316.68 1267.4 1320.66 1280.48 1306.44 1274.23C1292.79 1267.97 1296.2 1279.91 1300.75 1294.14L1301.32 1295.27C1301.32 1295.84 1301.89 1296.41 1301.89 1296.98C1306.44 1311.77 1323.51 1308.93 1301.89 1333.39C1287.67 1349.32 1280.27 1360.7 1280.27 1367.53C1285.96 1374.35 1285.96 1379.47 1280.27 1383.45C1278 1385.16 1275.72 1385.16 1273.44 1385.16H1272.88C1266.05 1385.16 1259.22 1383.45 1254.67 1401.09C1248.41 1425.55 1237.6 1445.46 1233.62 1463.1C1229.64 1480.74 1209.16 1469.93 1217.12 1487.56C1225.09 1505.2 1234.76 1502.35 1229.64 1514.87C1224.52 1527.39 1202.33 1549.57 1194.94 1555.83C1192.09 1558.11 1190.95 1558.11 1189.82 1558.68C1188.68 1559.24 1187.54 1559.81 1183.56 1566.64L1182.99 1565.5C1182.42 1566.64 1181.28 1568.35 1180.71 1570.05C1169.34 1589.4 1169.34 1591.1 1155.11 1601.34C1140.89 1611.58 1141.46 1621.25 1127.24 1621.25C1113.01 1621.25 1107.33 1617.27 1097.09 1633.2C1086.85 1649.13 1086.85 1658.23 1080.02 1658.23C1073.19 1658.23 1080.02 1644.01 1069.21 1658.23C1058.4 1672.46 1061.81 1670.18 1050.44 1670.18C1039.06 1670.18 1041.33 1658.23 1029.96 1658.23C1025.97 1658.23 1024.27 1657.66 1023.13 1656.53C1020.85 1654.82 1018.58 1652.54 1004.92 1652.54H957.705C950.878 1652.54 950.309 1659.37 940.069 1659.37C929.829 1659.37 929.26 1655.39 940.069 1645.15C950.878 1634.91 955.998 1644.01 940.069 1628.65C938.362 1626.94 936.655 1625.24 935.518 1624.1L934.38 1622.96L933.242 1621.82C920.726 1607.6 909.917 1593.38 904.228 1602.48C897.97 1613.29 888.299 1622.39 875.783 1628.65C867.818 1632.63 854.165 1638.32 834.822 1645.15C834.822 1634.34 830.271 1628.65 820.6 1628.65C806.377 1628.65 787.035 1632.06 775.657 1622.39C764.279 1613.29 752.332 1613.29 747.212 1613.29C741.523 1613.29 752.901 1604.19 747.212 1593.95C741.523 1583.71 742.66 1579.72 728.438 1593.95C714.215 1608.17 721.042 1622.39 711.371 1622.39C702.268 1622.39 698.855 1610.45 690.322 1622.39C686.908 1627.51 683.495 1627.51 680.65 1626.37H680.081H679.512C679.512 1626.37 679.512 1626.37 678.944 1626.37H678.375C674.392 1625.81 670.979 1625.24 668.134 1634.91C662.445 1653.11 659.032 1647.99 644.81 1659.94C630.587 1671.89 626.036 1647.99 618.64 1659.94C611.244 1671.89 615.796 1689.52 599.298 1689.52C582.799 1689.52 588.488 1671.89 571.99 1671.89C566.301 1671.89 561.181 1674.73 556.061 1678.14L554.923 1678.71C554.354 1678.71 554.354 1679.28 553.785 1679.28L552.648 1679.85C545.252 1684.97 538.994 1690.09 532.167 1683.26C520.22 1671.32 512.825 1677.01 507.136 1671.32C500.878 1665.63 500.309 1645.72 494.62 1652.54C488.931 1659.37 489.5 1659.94 479.26 1652.54C478.691 1651.98 477.553 1651.41 477.553 1650.84C476.984 1651.98 475.277 1652.54 469.588 1652.54C451.952 1652.54 441.143 1640.6 433.179 1634.34C425.214 1628.08 433.179 1631.49 433.179 1622.39C433.179 1619.55 429.765 1615 425.783 1611.01L425.214 1610.45C424.645 1609.88 424.076 1609.31 423.507 1608.74L422.938 1608.17C416.112 1600.77 409.285 1594.52 418.387 1594.52C433.179 1594.52 431.472 1609.31 442.281 1582.57C448.539 1566.64 450.246 1566.07 453.09 1566.64H453.659H454.228C455.935 1566.64 457.641 1566.64 460.486 1563.8C470.157 1555.83 488.931 1547.3 495.758 1537.63C502.584 1527.95 509.411 1495.53 527.616 1471.06C534.443 1461.39 541.839 1454 548.096 1447.74L549.803 1446.03C558.337 1437.5 565.163 1431.24 565.163 1425.55C565.163 1416.45 558.337 1403.93 564.026 1401.09C562.888 1399.95 562.319 1395.97 565.163 1388.01C573.128 1367.53 580.524 1364.11 573.128 1353.87C565.163 1343.06 573.128 1346.48 573.128 1333.39C573.128 1320.31 565.163 1312.34 565.163 1312.34C565.163 1312.34 580.524 1310.07 573.128 1297.55C570.284 1292.43 569.146 1295.27 569.146 1298.69V1299.26C569.146 1304.38 569.715 1310.63 565.732 1297.55C558.906 1275.36 558.906 1266.26 573.697 1250.9C578.248 1246.35 583.937 1241.8 590.195 1237.25L591.902 1236.11C606.124 1225.87 620.916 1216.2 620.916 1209.37C620.916 1199.13 613.52 1196.29 626.605 1184.34C627.174 1183.77 627.743 1183.2 628.311 1182.63L630.018 1180.93L631.156 1179.79C643.103 1168.98 653.343 1157.6 647.085 1143.95C642.534 1133.71 642.534 1124.6 647.085 1116.07V1104.12C647.085 1095.02 645.947 1084.78 640.258 1084.78C638.552 1084.78 635.707 1085.35 633.432 1085.92H632.294H631.156C626.036 1087.06 620.916 1088.19 620.916 1084.21C620.916 1077.95 610.107 1055.2 601.573 1038.7C593.04 1022.2 574.266 1026.75 574.266 1017.65C574.266 1009.12 566.87 1000.58 566.301 999.447C566.301 999.447 541.839 977.828 541.839 976.691C541.839 976.691 541.27 976.122 541.27 974.984L540.701 974.415C538.994 971.002 535.012 964.175 531.598 956.779L531.029 955.641C528.754 951.09 525.909 946.539 523.634 942.557C520.789 937.436 514.531 936.299 508.842 935.73H507.705C499.74 934.592 492.344 933.454 497.464 923.214C498.033 922.076 498.602 920.369 499.171 919.232L499.74 917.525C507.136 900.458 513.962 883.391 509.98 876.564C508.842 874.289 506.567 873.72 504.291 873.151H503.722C503.722 873.151 503.153 873.151 502.584 873.151H502.016H500.878C495.758 872.582 491.206 871.444 491.206 858.928C491.206 838.448 478.122 802.038 471.295 779.282C464.468 755.957 461.624 745.148 471.295 722.961C476.415 711.583 475.846 707.032 474.708 703.618V703.05V702.481C473.571 699.636 471.864 696.792 471.864 690.534V655.831C471.864 650.142 467.882 649.004 463.899 647.297L462.761 646.728C458.779 645.022 454.797 643.884 454.797 638.195V594.39C454.797 580.736 453.09 577.891 462.761 568.22C472.433 559.118 453.09 551.153 462.761 534.655C472.433 518.157 487.793 501.09 492.913 493.125C498.033 484.592 496.895 488.574 504.291 478.903C511.687 469.231 509.411 456.716 524.203 443.062C538.994 428.84 582.799 399.257 602.142 386.741C621.485 374.794 626.036 358.296 633.432 346.349C640.827 334.402 647.654 327.006 647.654 319.042C647.654 311.077 635.707 291.166 647.654 275.805C651.067 271.254 655.619 265.565 659.601 260.445L660.739 259.307C668.703 244.516 679.512 232 683.495 232Z"/>
</mask>
<path fill-rule="evenodd" clip-rule="evenodd" d="M632.863 302.544C632.863 302.544 640.827 298.561 640.827 311.077C640.827 323.593 638.552 325.3 632.863 319.611C627.174 313.922 632.863 302.544 632.863 302.544ZM612.951 354.882C625.467 345.78 627.174 347.487 618.64 359.434C604.987 378.207 595.884 377.638 595.884 371.381C595.315 367.398 601.004 361.709 612.951 354.882ZM564.026 1399.38C566.301 1401.09 569.715 1398.25 565.163 1398.81C565.163 1399.38 564.595 1399.38 564.026 1399.38ZM478.691 1649.13C479.26 1647.99 475.277 1646.29 478.691 1649.13ZM683.495 232C686.339 232 695.442 234.845 704.544 238.258L706.251 238.827C715.353 241.671 724.456 244.516 729.007 244.516C739.247 244.516 764.847 247.36 764.847 261.014C764.847 270.685 773.95 271.254 783.621 272.392H784.759C788.741 272.961 792.155 273.53 795.568 274.668C806.946 279.219 810.928 281.494 821.169 287.752C831.409 294.01 841.649 306.526 854.734 312.215C867.818 317.904 949.74 337.815 957.705 337.815C965.669 337.815 1006.63 328.713 1017.44 345.211C1028.25 361.709 1041.33 368.536 1051 353.176C1060.68 337.815 1072.62 354.882 1080.59 361.709C1088.55 368.536 1112.45 379.914 1119.84 386.172C1127.24 392.43 1133.49 414.617 1155.68 435.097C1177.87 455.578 1182.42 453.871 1188.11 468.663C1193.8 483.454 1204.61 489.712 1217.12 499.383C1229.64 508.486 1221.67 521.57 1233.62 521.57C1245.57 521.57 1254.67 519.864 1254.67 527.828C1254.67 535.793 1258.08 530.104 1264.91 535.224C1267.76 536.931 1268.89 537.499 1269.46 537.499C1271.17 537.499 1272.31 538.068 1279.7 545.464C1291.65 557.411 1291.65 561.393 1291.65 568.22V568.789C1291.65 571.065 1290.51 574.478 1289.37 578.46L1288.8 579.598C1285.96 588.132 1282.55 596.096 1291.65 584.718C1304.73 568.789 1307.01 559.687 1316.11 559.687C1325.21 559.687 1339.44 568.789 1339.44 576.754C1339.44 584.718 1316.11 594.958 1316.11 612.594C1316.11 630.799 1291.08 655.831 1300.75 655.831C1310.42 655.831 1318.96 622.266 1324.08 617.714C1329.2 612.594 1324.65 606.336 1339.44 600.647C1354.23 594.958 1357.64 583.58 1365.04 600.647C1372.43 617.714 1374.14 620.559 1394.05 629.661C1413.96 638.764 1414.53 637.626 1421.93 656.4C1424.77 663.226 1428.19 666.071 1431.6 669.484L1432.17 670.053C1438.43 675.173 1445.82 681.431 1450.94 707.032C1458.91 747.993 1462.89 757.095 1460.61 768.473C1460.04 773.024 1450.94 779.282 1441.27 784.971L1440.13 785.54L1438.99 786.109C1427.05 793.505 1415.67 799.763 1421.93 802.607C1433.87 807.727 1447.53 798.056 1458.91 788.953C1470.28 779.851 1477.11 778.713 1473.7 739.459C1470.28 700.205 1470.28 685.982 1482.8 674.604C1495.88 663.226 1511.81 685.414 1511.81 687.689C1511.81 689.965 1524.33 695.654 1524.33 705.894C1524.33 712.721 1527.17 723.53 1532.29 738.89C1536.85 740.028 1540.83 745.148 1544.24 754.251C1549.36 767.335 1539.12 778.713 1544.24 778.713C1549.36 778.713 1565.86 774.162 1565.86 787.816C1565.86 793.505 1562.45 795.78 1559.6 797.487L1559.03 798.056C1559.03 798.056 1558.46 798.056 1558.46 798.625L1557.89 799.194C1554.48 801.469 1551.64 804.314 1556.19 813.416C1565.86 831.621 1585.2 840.723 1585.2 858.928C1585.2 877.133 1581.22 917.525 1573.25 923.783C1565.86 930.041 1531.16 928.334 1524.9 953.366C1518.64 977.828 1513.52 1001.72 1498.16 1010.26C1483.37 1018.79 1473.7 1027.32 1473.7 1039.84C1473.7 1052.35 1466.87 1047.8 1458.91 1050.08C1450.94 1052.35 1445.25 1051.22 1445.25 1068.28C1445.25 1085.35 1442.98 1101.85 1429.32 1116.07C1415.1 1130.29 1403.72 1122.33 1403.72 1137.12C1403.72 1142.81 1406.57 1143.95 1408.84 1145.09H1409.41C1412.26 1146.79 1413.96 1147.93 1404.29 1162.15C1387.22 1186.61 1385.52 1184.91 1379.26 1197.99C1373 1211.08 1362.19 1244.64 1347.4 1244.64C1332.61 1244.64 1333.18 1221.89 1324.65 1244.64C1316.68 1267.4 1320.66 1280.48 1306.44 1274.23C1292.79 1267.97 1296.2 1279.91 1300.75 1294.14L1301.32 1295.27C1301.32 1295.84 1301.89 1296.41 1301.89 1296.98C1306.44 1311.77 1323.51 1308.93 1301.89 1333.39C1287.67 1349.32 1280.27 1360.7 1280.27 1367.53C1285.96 1374.35 1285.96 1379.47 1280.27 1383.45C1278 1385.16 1275.72 1385.16 1273.44 1385.16H1272.88C1266.05 1385.16 1259.22 1383.45 1254.67 1401.09C1248.41 1425.55 1237.6 1445.46 1233.62 1463.1C1229.64 1480.74 1209.16 1469.93 1217.12 1487.56C1225.09 1505.2 1234.76 1502.35 1229.64 1514.87C1224.52 1527.39 1202.33 1549.57 1194.94 1555.83C1192.09 1558.11 1190.95 1558.11 1189.82 1558.68C1188.68 1559.24 1187.54 1559.81 1183.56 1566.64L1182.99 1565.5C1182.42 1566.64 1181.28 1568.35 1180.71 1570.05C1169.34 1589.4 1169.34 1591.1 1155.11 1601.34C1140.89 1611.58 1141.46 1621.25 1127.24 1621.25C1113.01 1621.25 1107.33 1617.27 1097.09 1633.2C1086.85 1649.13 1086.85 1658.23 1080.02 1658.23C1073.19 1658.23 1080.02 1644.01 1069.21 1658.23C1058.4 1672.46 1061.81 1670.18 1050.44 1670.18C1039.06 1670.18 1041.33 1658.23 1029.96 1658.23C1025.97 1658.23 1024.27 1657.66 1023.13 1656.53C1020.85 1654.82 1018.58 1652.54 1004.92 1652.54H957.705C950.878 1652.54 950.309 1659.37 940.069 1659.37C929.829 1659.37 929.26 1655.39 940.069 1645.15C950.878 1634.91 955.998 1644.01 940.069 1628.65C938.362 1626.94 936.655 1625.24 935.518 1624.1L934.38 1622.96L933.242 1621.82C920.726 1607.6 909.917 1593.38 904.228 1602.48C897.97 1613.29 888.299 1622.39 875.783 1628.65C867.818 1632.63 854.165 1638.32 834.822 1645.15C834.822 1634.34 830.271 1628.65 820.6 1628.65C806.377 1628.65 787.035 1632.06 775.657 1622.39C764.279 1613.29 752.332 1613.29 747.212 1613.29C741.523 1613.29 752.901 1604.19 747.212 1593.95C741.523 1583.71 742.66 1579.72 728.438 1593.95C714.215 1608.17 721.042 1622.39 711.371 1622.39C702.268 1622.39 698.855 1610.45 690.322 1622.39C686.908 1627.51 683.495 1627.51 680.65 1626.37H680.081H679.512C679.512 1626.37 679.512 1626.37 678.944 1626.37H678.375C674.392 1625.81 670.979 1625.24 668.134 1634.91C662.445 1653.11 659.032 1647.99 644.81 1659.94C630.587 1671.89 626.036 1647.99 618.64 1659.94C611.244 1671.89 615.796 1689.52 599.298 1689.52C582.799 1689.52 588.488 1671.89 571.99 1671.89C566.301 1671.89 561.181 1674.73 556.061 1678.14L554.923 1678.71C554.354 1678.71 554.354 1679.28 553.785 1679.28L552.648 1679.85C545.252 1684.97 538.994 1690.09 532.167 1683.26C520.22 1671.32 512.825 1677.01 507.136 1671.32C500.878 1665.63 500.309 1645.72 494.62 1652.54C488.931 1659.37 489.5 1659.94 479.26 1652.54C478.691 1651.98 477.553 1651.41 477.553 1650.84C476.984 1651.98 475.277 1652.54 469.588 1652.54C451.952 1652.54 441.143 1640.6 433.179 1634.34C425.214 1628.08 433.179 1631.49 433.179 1622.39C433.179 1619.55 429.765 1615 425.783 1611.01L425.214 1610.45C424.645 1609.88 424.076 1609.31 423.507 1608.74L422.938 1608.17C416.112 1600.77 409.285 1594.52 418.387 1594.52C433.179 1594.52 431.472 1609.31 442.281 1582.57C448.539 1566.64 450.246 1566.07 453.09 1566.64H453.659H454.228C455.935 1566.64 457.641 1566.64 460.486 1563.8C470.157 1555.83 488.931 1547.3 495.758 1537.63C502.584 1527.95 509.411 1495.53 527.616 1471.06C534.443 1461.39 541.839 1454 548.096 1447.74L549.803 1446.03C558.337 1437.5 565.163 1431.24 565.163 1425.55C565.163 1416.45 558.337 1403.93 564.026 1401.09C562.888 1399.95 562.319 1395.97 565.163 1388.01C573.128 1367.53 580.524 1364.11 573.128 1353.87C565.163 1343.06 573.128 1346.48 573.128 1333.39C573.128 1320.31 565.163 1312.34 565.163 1312.34C565.163 1312.34 580.524 1310.07 573.128 1297.55C570.284 1292.43 569.146 1295.27 569.146 1298.69V1299.26C569.146 1304.38 569.715 1310.63 565.732 1297.55C558.906 1275.36 558.906 1266.26 573.697 1250.9C578.248 1246.35 583.937 1241.8 590.195 1237.25L591.902 1236.11C606.124 1225.87 620.916 1216.2 620.916 1209.37C620.916 1199.13 613.52 1196.29 626.605 1184.34C627.174 1183.77 627.743 1183.2 628.311 1182.63L630.018 1180.93L631.156 1179.79C643.103 1168.98 653.343 1157.6 647.085 1143.95C642.534 1133.71 642.534 1124.6 647.085 1116.07V1104.12C647.085 1095.02 645.947 1084.78 640.258 1084.78C638.552 1084.78 635.707 1085.35 633.432 1085.92H632.294H631.156C626.036 1087.06 620.916 1088.19 620.916 1084.21C620.916 1077.95 610.107 1055.2 601.573 1038.7C593.04 1022.2 574.266 1026.75 574.266 1017.65C574.266 1009.12 566.87 1000.58 566.301 999.447C566.301 999.447 541.839 977.828 541.839 976.691C541.839 976.691 541.27 976.122 541.27 974.984L540.701 974.415C538.994 971.002 535.012 964.175 531.598 956.779L531.029 955.641C528.754 951.09 525.909 946.539 523.634 942.557C520.789 937.436 514.531 936.299 508.842 935.73H507.705C499.74 934.592 492.344 933.454 497.464 923.214C498.033 922.076 498.602 920.369 499.171 919.232L499.74 917.525C507.136 900.458 513.962 883.391 509.98 876.564C508.842 874.289 506.567 873.72 504.291 873.151H503.722C503.722 873.151 503.153 873.151 502.584 873.151H502.016H500.878C495.758 872.582 491.206 871.444 491.206 858.928C491.206 838.448 478.122 802.038 471.295 779.282C464.468 755.957 461.624 745.148 471.295 722.961C476.415 711.583 475.846 707.032 474.708 703.618V703.05V702.481C473.571 699.636 471.864 696.792 471.864 690.534V655.831C471.864 650.142 467.882 649.004 463.899 647.297L462.761 646.728C458.779 645.022 454.797 643.884 454.797 638.195V594.39C454.797 580.736 453.09 577.891 462.761 568.22C472.433 559.118 453.09 551.153 462.761 534.655C472.433 518.157 487.793 501.09 492.913 493.125C498.033 484.592 496.895 488.574 504.291 478.903C511.687 469.231 509.411 456.716 524.203 443.062C538.994 428.84 582.799 399.257 602.142 386.741C621.485 374.794 626.036 358.296 633.432 346.349C640.827 334.402 647.654 327.006 647.654 319.042C647.654 311.077 635.707 291.166 647.654 275.805C651.067 271.254 655.619 265.565 659.601 260.445L660.739 259.307C668.703 244.516 679.512 232 683.495 232Z" fill="#47CC4D" stroke="#C2C2C2" stroke-width="2" mask="url(#path-1-inside-1_1_1436)"/>
</svg>
