<svg width="2000" height="1922" viewBox="0 0 2000 1922" fill="none" xmlns="http://www.w3.org/2000/svg">
<path d="M991.871 1140.52C991.482 1119.6 1015.6 1123.18 1020.3 1107.35C1010.12 1081.29 1001.88 1074.23 1001.35 1045.76C976.821 1052.82 965.82 1073.4 935.017 1074.19C935.739 1089.25 945.758 1095.03 944.492 1112.09C905.07 1111.87 904.301 1090.71 868.685 1107.35C875.212 1101.25 873.374 1086.77 873.423 1074.19C862.983 1079.54 847.284 1079.63 844.994 1093.14C835.958 1091.12 836.422 1079.6 821.304 1083.66C712.641 1122.92 712.125 959.668 603.357 984.166C594.699 956.496 586.33 928.542 551.238 927.309C548.15 908.286 542.407 891.919 522.811 889.405C528.984 853.225 506.626 845.575 489.644 832.548C471.623 779.32 416.106 738.533 428.05 666.718C432.493 640.006 460.189 619.671 461.217 586.172C445.404 548.287 423.31 516.684 380.671 505.626C380.455 467.94 365.714 444.775 323.814 448.772C305.426 428.886 306.277 401.623 295.387 377.702C290.392 366.728 273.724 353.776 271.697 344.536C254.811 267.565 332.587 211.995 352.243 155.014C406.301 136.425 457.593 115.065 508.596 93.42C558.752 92.7924 582.539 105.746 627.047 102.897C632.374 111.784 645.41 112.962 650.736 121.849C718.809 116.951 715.72 183.212 783.4 178.706C785.092 192.807 790.947 202.745 797.614 211.872C844.575 207.554 847.146 247.624 878.16 259.252C898.092 258.652 900.871 240.899 920.802 240.3C924.085 265.706 947.239 273.669 972.921 263.989C979.569 279.452 973.003 308.129 1006.09 297.156C998.337 340.72 1027.48 358.167 1062.94 344.536C1071.47 388.032 1089.47 450.546 1148.22 458.247C1146.83 467.908 1135.41 467.537 1134.01 477.199C1135.96 492.622 1156.54 489.413 1167.18 496.151C1188.88 526.567 1185.82 581.742 1219.3 600.387C1254.34 592.8 1239.88 547.307 1261.94 529.318C1270.27 522.524 1337.91 507.356 1337.75 519.841C1373.73 491.073 1445.4 497.995 1460.93 448.772C1470.2 460.042 1494.91 455.855 1508.31 462.984C1513.15 485.192 1500.51 489.931 1494.1 500.889C1495.23 513.969 1511.72 511.701 1517.79 519.841C1515.38 541.439 1496.15 516.831 1484.62 529.318C1486.89 514.412 1477.88 510.796 1475.15 500.889C1467.25 500.889 1459.35 500.889 1451.46 500.889C1444.54 506.609 1446.9 521.602 1427.77 515.103C1426.47 546.903 1460.52 519.627 1465.67 538.793C1454.9 556.453 1431.84 561.818 1423.03 581.435C1424.32 598.048 1444.01 572.876 1441.98 586.172C1441.38 594.672 1447.78 596.167 1446.72 605.124C1439.68 597.664 1425.55 599.847 1427.77 614.601C1414.57 610.197 1399.61 597.452 1389.86 614.601C1378.4 573.945 1345.39 554.842 1290.37 557.745C1284.79 569.535 1282.55 584.673 1271.41 590.912C1270.62 607.503 1288.08 605.828 1295.1 614.601C1286.87 623.738 1262.2 616.443 1261.94 633.554C1264.57 657.767 1284.17 665.022 1299.84 676.196C1315.97 680.89 1313.25 642.723 1323.53 657.243C1343.45 661.167 1309.16 684.948 1309.32 699.885C1333.73 717.789 1344.49 681.505 1366.18 680.933C1365.07 722.484 1392.06 738.724 1418.29 728.313C1414.7 749.991 1399.33 759.891 1389.86 775.692C1364.3 761.988 1351.43 787.061 1318.79 780.431C1317.49 799.11 1339.05 794.92 1337.75 813.596C1320.45 816.673 1312.51 810.404 1304.58 804.121C1293.62 813.691 1279.26 819.867 1276.15 837.288C1289.06 859.128 1306.31 876.617 1314.06 903.62C1364.15 909.489 1352.33 853.445 1399.34 856.238C1408.11 887.928 1449.8 857.592 1456.19 889.405C1469.38 891.539 1452.48 863.579 1465.67 865.715C1491.01 863.605 1457.96 890.47 1475.15 894.142C1463.41 896.683 1455.14 897.908 1451.46 917.832C1432.57 919.346 1416.45 918.093 1408.82 908.357C1393.27 944.515 1455.03 944.205 1451.46 984.166C1444.37 989.712 1432.08 990.054 1427.77 998.378C1421.41 1039.85 1472.58 1000.68 1470.41 1031.54C1490.27 1032.45 1485.06 1008.29 1508.31 1012.59C1515.37 1030.87 1506.49 1059.94 1532 1078.92C1535.45 1091.85 1522.59 1088.46 1522.53 1097.87C1530 1109.35 1539.48 1118.83 1550.96 1126.3C1567.34 1130.05 1570.96 1121.04 1579.38 1116.83C1599.06 1122.42 1605.38 1141.37 1617.29 1154.73C1610.97 1154.73 1604.65 1154.73 1598.34 1154.73C1595.55 1171.74 1626.64 1154.86 1622.02 1173.68C1606.22 1178.74 1605.85 1172.18 1588.86 1178.42C1585.18 1205.7 1598.76 1201.63 1617.29 1197.38C1615.89 1207.03 1604.47 1206.66 1603.07 1216.33C1617.57 1219.76 1617.01 1208.15 1631.5 1211.59C1635.03 1226.17 1618.5 1220.69 1622.02 1235.28C1651.25 1234.49 1649 1202.24 1678.88 1202.11C1668.69 1226.67 1656.77 1249.49 1640.98 1268.44C1646.36 1288.33 1662.4 1297.56 1678.88 1306.35C1672.64 1318.38 1641.86 1322.72 1659.93 1344.25C1673.82 1343.93 1670.31 1326.21 1688.36 1330.04C1687.63 1345.11 1677.62 1350.88 1678.88 1367.94C1652.42 1349.98 1657.58 1398.75 1645.72 1410.58C1660.97 1423.47 1662.49 1392.28 1688.36 1401.11C1707.59 1426.24 1677.59 1478.22 1716.79 1472.18C1719.25 1489.37 1715.7 1502.34 1731 1514.82C1722.92 1553.33 1695.67 1532.63 1683.62 1552.72C1710.19 1557.74 1711.48 1588.03 1731 1600.1C1678.31 1586.41 1711.71 1677.49 1659.93 1685.39C1661.39 1702.65 1659.18 1716.22 1655.19 1728.03C1633.4 1729.29 1631.23 1710.93 1617.29 1704.34C1593.04 1731.75 1630.91 1741.65 1640.98 1761.2C1631.07 1771.52 1627.45 1758.83 1612.55 1761.2C1578.2 1800.63 1570.83 1844.04 1503.58 1822.79C1494.06 1813.13 1505.67 1813.5 1508.31 1803.84C1495.17 1798.03 1486.15 1788.1 1475.15 1780.15C1473.14 1770.24 1478.39 1767.6 1479.88 1761.2C1472.63 1747.93 1444.84 1755.18 1446.72 1732.77C1494.37 1728.21 1492.42 1653.54 1479.88 1628.53C1497.59 1623.47 1493.39 1640.3 1508.31 1638.01C1515.5 1608.87 1554.72 1611.77 1555.69 1576.41C1549.57 1549.94 1518.35 1575.63 1508.31 1557.46C1482.16 1580.27 1463.67 1610.73 1437.25 1633.27C1416.73 1626.93 1407.52 1609.3 1389.86 1600.1C1389.86 1589.05 1389.86 1577.99 1389.86 1566.94C1370.57 1557.84 1339.1 1570.92 1318.79 1585.89C1275.28 1563.46 1210.29 1585.28 1200.35 1543.25C1177.72 1541.16 1184.98 1568.95 1157.7 1562.2C1154.06 1545.13 1170.81 1520.76 1138.75 1514.82C1128.16 1516.86 1136.83 1538.17 1134.01 1547.99C1120.11 1546.1 1117.97 1532.44 1105.58 1529.04C1109.57 1540.84 1111.79 1554.42 1110.32 1571.68C1093.91 1559.66 1066.88 1558.27 1072.42 1524.3C1053.86 1521.53 1060.32 1543.79 1048.73 1547.99C1028.1 1544.93 1025.99 1523.35 1006.09 1519.56C937.821 1523.94 924.694 1583.46 887.635 1619.05C864.028 1609.5 843.932 1596.43 840.256 1566.94C812.998 1570.51 795.124 1564.69 788.139 1547.99C805.84 1535.15 806.054 1495.38 792.877 1476.92C785.437 1478.95 788.826 1491.82 773.924 1486.39C771.824 1482.18 769.764 1477.92 764.447 1476.92C757.844 1448.2 786.966 1455.21 783.4 1429.54C767.773 1414.66 740.206 1435.46 726.545 1424.8C748.441 1362.04 764.241 1346.14 802.352 1301.61C853.152 1324.36 849.85 1263.76 892.375 1263.71C886.097 1249.61 887.516 1239.67 897.112 1230.54C906.599 1236.85 907.668 1251.57 911.327 1263.71C922.249 1258.84 926.605 1247.4 944.492 1249.49C909.627 1328.74 997.041 1296.11 1029.78 1325.3C1040.05 1326.1 1031.92 1308.49 1034.52 1301.61C1067.86 1323.95 1087.19 1270.85 1115.06 1273.18C1109.58 1254.97 1086.29 1254.57 1091.37 1225.8C1075 1244.43 1058.06 1213.6 1039.25 1235.28C1037.84 1206.04 1031.83 1132.24 991.871 1140.52Z" fill="#47CC4D"/>
<path d="M991.871 1140.52C991.482 1119.6 1015.6 1123.18 1020.3 1107.35C1010.12 1081.29 1001.88 1074.23 1001.35 1045.76C976.821 1052.82 965.82 1073.4 935.017 1074.19C935.739 1089.25 945.758 1095.03 944.492 1112.09C905.07 1111.87 904.301 1090.71 868.685 1107.35C875.212 1101.25 873.374 1086.77 873.423 1074.19C862.983 1079.54 847.284 1079.63 844.994 1093.14C835.958 1091.12 836.422 1079.6 821.304 1083.66C712.641 1122.92 712.125 959.668 603.357 984.166C594.699 956.496 586.33 928.542 551.238 927.309C548.15 908.286 542.407 891.919 522.811 889.405C528.984 853.225 506.626 845.575 489.644 832.548C471.623 779.32 416.106 738.533 428.05 666.718C432.493 640.006 460.189 619.671 461.217 586.172C445.404 548.287 423.31 516.684 380.671 505.626C380.455 467.94 365.714 444.775 323.814 448.772C305.426 428.886 306.277 401.623 295.387 377.702C290.392 366.728 273.724 353.776 271.697 344.536C254.811 267.565 332.587 211.995 352.243 155.014C406.301 136.425 457.593 115.065 508.596 93.42C558.752 92.7924 582.539 105.746 627.047 102.897C632.374 111.784 645.41 112.962 650.736 121.849C718.809 116.951 715.72 183.212 783.4 178.706C785.092 192.807 790.947 202.745 797.614 211.872C844.575 207.554 847.146 247.624 878.16 259.252C898.092 258.652 900.871 240.899 920.802 240.3C924.085 265.706 947.239 273.669 972.921 263.989C979.569 279.452 973.003 308.129 1006.09 297.156C998.337 340.72 1027.48 358.167 1062.94 344.536C1071.47 388.032 1089.47 450.546 1148.22 458.247C1146.83 467.908 1135.41 467.537 1134.01 477.199C1135.96 492.622 1156.54 489.413 1167.18 496.151C1188.88 526.567 1185.82 581.742 1219.3 600.387C1254.34 592.8 1239.88 547.307 1261.94 529.318C1270.27 522.524 1337.91 507.356 1337.75 519.841C1373.73 491.073 1445.4 497.995 1460.93 448.772C1470.2 460.042 1494.91 455.855 1508.31 462.984C1513.15 485.192 1500.51 489.931 1494.1 500.889C1495.23 513.969 1511.72 511.701 1517.79 519.841C1515.38 541.439 1496.15 516.831 1484.62 529.318C1486.89 514.412 1477.88 510.796 1475.15 500.889C1467.25 500.889 1459.35 500.889 1451.46 500.889C1444.54 506.609 1446.9 521.602 1427.77 515.103C1426.47 546.903 1460.52 519.627 1465.67 538.793C1454.9 556.453 1431.84 561.818 1423.03 581.435C1424.32 598.048 1444.01 572.876 1441.98 586.172C1441.38 594.672 1447.78 596.167 1446.72 605.124C1439.68 597.664 1425.55 599.847 1427.77 614.601C1414.57 610.197 1399.61 597.452 1389.86 614.601C1378.4 573.945 1345.39 554.842 1290.37 557.745C1284.79 569.535 1282.55 584.673 1271.41 590.912C1270.62 607.503 1288.08 605.828 1295.1 614.601C1286.87 623.738 1262.2 616.443 1261.94 633.554C1264.57 657.767 1284.17 665.022 1299.84 676.196C1315.97 680.89 1313.25 642.723 1323.53 657.243C1343.45 661.167 1309.16 684.948 1309.32 699.885C1333.73 717.789 1344.49 681.505 1366.18 680.933C1365.07 722.484 1392.06 738.724 1418.29 728.313C1414.7 749.991 1399.33 759.891 1389.86 775.692C1364.3 761.988 1351.43 787.061 1318.79 780.431C1317.49 799.11 1339.05 794.92 1337.75 813.596C1320.45 816.673 1312.51 810.404 1304.58 804.121C1293.62 813.691 1279.26 819.867 1276.15 837.288C1289.06 859.128 1306.31 876.617 1314.06 903.62C1364.15 909.489 1352.33 853.445 1399.34 856.238C1408.11 887.928 1449.8 857.592 1456.19 889.405C1469.38 891.539 1452.48 863.579 1465.67 865.715C1491.01 863.605 1457.96 890.47 1475.15 894.142C1463.41 896.683 1455.14 897.908 1451.46 917.832C1432.57 919.346 1416.45 918.093 1408.82 908.357C1393.27 944.515 1455.03 944.205 1451.46 984.166C1444.37 989.712 1432.08 990.054 1427.77 998.378C1421.41 1039.85 1472.58 1000.68 1470.41 1031.54C1490.27 1032.45 1485.06 1008.29 1508.31 1012.59C1515.37 1030.87 1506.49 1059.94 1532 1078.92C1535.45 1091.85 1522.59 1088.46 1522.53 1097.87C1530 1109.35 1539.48 1118.83 1550.96 1126.3C1567.34 1130.05 1570.96 1121.04 1579.38 1116.83C1599.06 1122.42 1605.38 1141.37 1617.29 1154.73C1610.97 1154.73 1604.65 1154.73 1598.34 1154.73C1595.55 1171.74 1626.64 1154.86 1622.02 1173.68C1606.22 1178.74 1605.85 1172.18 1588.86 1178.42C1585.18 1205.7 1598.76 1201.63 1617.29 1197.38C1615.89 1207.03 1604.47 1206.66 1603.07 1216.33C1617.57 1219.76 1617.01 1208.15 1631.5 1211.59C1635.03 1226.17 1618.5 1220.69 1622.02 1235.28C1651.25 1234.49 1649 1202.24 1678.88 1202.11C1668.69 1226.67 1656.77 1249.49 1640.98 1268.44C1646.36 1288.33 1662.4 1297.56 1678.88 1306.35C1672.64 1318.38 1641.86 1322.72 1659.93 1344.25C1673.82 1343.93 1670.31 1326.21 1688.36 1330.04C1687.63 1345.11 1677.62 1350.88 1678.88 1367.94C1652.42 1349.98 1657.58 1398.75 1645.72 1410.58C1660.97 1423.47 1662.49 1392.28 1688.36 1401.11C1707.59 1426.24 1677.59 1478.22 1716.79 1472.18C1719.25 1489.37 1715.7 1502.34 1731 1514.82C1722.92 1553.33 1695.67 1532.63 1683.62 1552.72C1710.19 1557.74 1711.48 1588.03 1731 1600.1C1678.31 1586.41 1711.71 1677.49 1659.93 1685.39C1661.39 1702.65 1659.18 1716.22 1655.19 1728.03C1633.4 1729.29 1631.23 1710.93 1617.29 1704.34C1593.04 1731.75 1630.91 1741.65 1640.98 1761.2C1631.07 1771.52 1627.45 1758.83 1612.55 1761.2C1578.2 1800.63 1570.83 1844.04 1503.58 1822.79C1494.06 1813.13 1505.67 1813.5 1508.31 1803.84C1495.17 1798.03 1486.15 1788.1 1475.15 1780.15C1473.14 1770.24 1478.39 1767.6 1479.88 1761.2C1472.63 1747.93 1444.84 1755.18 1446.72 1732.77C1494.37 1728.21 1492.42 1653.54 1479.88 1628.53C1497.59 1623.47 1493.39 1640.3 1508.31 1638.01C1515.5 1608.87 1554.72 1611.77 1555.69 1576.41C1549.57 1549.94 1518.35 1575.63 1508.31 1557.46C1482.16 1580.27 1463.67 1610.73 1437.25 1633.27C1416.73 1626.93 1407.52 1609.3 1389.86 1600.1C1389.86 1589.05 1389.86 1577.99 1389.86 1566.94C1370.57 1557.84 1339.1 1570.92 1318.79 1585.89C1275.28 1563.46 1210.29 1585.28 1200.35 1543.25C1177.72 1541.16 1184.98 1568.95 1157.7 1562.2C1154.06 1545.13 1170.81 1520.76 1138.75 1514.82C1128.16 1516.86 1136.83 1538.17 1134.01 1547.99C1120.11 1546.1 1117.97 1532.44 1105.58 1529.04C1109.57 1540.84 1111.79 1554.42 1110.32 1571.68C1093.91 1559.66 1066.88 1558.27 1072.42 1524.3C1053.86 1521.53 1060.32 1543.79 1048.73 1547.99C1028.1 1544.93 1025.99 1523.35 1006.09 1519.56C937.821 1523.94 924.694 1583.46 887.635 1619.05C864.028 1609.5 843.932 1596.43 840.256 1566.94C812.998 1570.51 795.124 1564.69 788.139 1547.99C805.84 1535.15 806.054 1495.38 792.877 1476.92C785.437 1478.95 788.826 1491.82 773.924 1486.39C771.824 1482.18 769.764 1477.92 764.447 1476.92C757.844 1448.2 786.966 1455.21 783.4 1429.54C767.773 1414.66 740.206 1435.46 726.545 1424.8C748.441 1362.04 764.241 1346.14 802.352 1301.61C853.152 1324.36 849.85 1263.76 892.375 1263.71C886.097 1249.61 887.516 1239.67 897.112 1230.54C906.599 1236.85 907.668 1251.57 911.327 1263.71C922.249 1258.84 926.605 1247.4 944.492 1249.49C909.627 1328.74 997.041 1296.11 1029.78 1325.3C1040.05 1326.1 1031.92 1308.49 1034.52 1301.61C1067.86 1323.95 1087.19 1270.85 1115.06 1273.18C1109.58 1254.97 1086.29 1254.57 1091.37 1225.8C1075 1244.43 1058.06 1213.6 1039.25 1235.28C1037.84 1206.04 1031.83 1132.24 991.871 1140.52Z" stroke="#C2C2C2" stroke-width="5.33333"/>
</svg>
