<svg width="1024" height="1024" viewBox="0 0 1024 1024" fill="none" xmlns="http://www.w3.org/2000/svg">
<rect x="72.7395" y="55.323" width="877.996" height="913.854" rx="57.372" fill="#EEEEFF"/>
<path fill-rule="evenodd" clip-rule="evenodd" d="M711.482 292.619C712.712 291.154 715.101 292.023 715.101 293.936V689.994C715.101 691.907 712.712 692.777 711.482 691.311L590.92 547.631C590.293 546.884 590.282 545.799 590.878 545.027C603.886 528.161 611.623 507.022 611.623 484.075C611.623 464.823 606.177 446.844 596.741 431.592C596.269 430.831 596.331 429.851 596.907 429.165L711.482 292.619ZM559.501 396.326C560.369 396.8 561.454 396.607 562.09 395.849L714.622 214.069C714.931 213.7 715.101 213.233 715.101 212.752V180.266C715.101 179.309 714.439 178.478 713.504 178.273C701.241 175.572 686.874 173.188 671.556 170.646C601.654 159.046 511.944 144.159 511.944 80.9355C511.944 144.136 422.028 159.035 352.035 170.633C336.666 173.18 322.257 175.568 309.971 178.273C309.036 178.478 308.374 179.309 308.374 180.266V210.16C308.374 210.642 308.544 211.108 308.854 211.477L462.885 395.044C463.512 395.791 464.578 395.991 465.442 395.538C479.28 388.288 495.029 384.187 511.734 384.187C529.037 384.187 545.311 388.586 559.501 396.326ZM433.603 548.974C434.238 548.217 434.24 547.115 433.624 546.343C419.993 529.267 411.846 507.623 411.846 484.075C411.846 464.208 417.646 445.696 427.645 430.139C428.136 429.374 428.082 428.378 427.498 427.681L311.993 290.028C310.763 288.563 308.374 289.432 308.374 291.345V692.586C308.374 694.499 310.763 695.368 311.993 693.903L433.603 548.974ZM474.8 576.914C473.969 576.583 473.015 576.813 472.44 577.499L320.733 758.297C320.231 758.894 320.114 759.73 320.434 760.441C339.753 803.301 377.33 826.981 414.862 850.634C452.595 874.412 490.283 898.163 509.331 941.346C510.107 943.107 512.751 943.03 513.432 941.231C530.012 897.409 568.425 873.614 607.418 849.458C645.547 825.838 684.231 801.874 703.6 758.506C703.917 757.796 703.799 756.964 703.299 756.368L552.654 576.836C552.069 576.14 551.098 575.914 550.259 576.264C538.404 581.224 525.389 583.964 511.734 583.964C498.688 583.964 486.225 581.463 474.8 576.914Z" fill="url(#paint0_linear_31_1217)"/>
<path fill-rule="evenodd" clip-rule="evenodd" d="M711.482 292.619C712.712 291.154 715.101 292.023 715.101 293.936V689.994C715.101 691.907 712.712 692.777 711.482 691.311L590.92 547.631C590.293 546.884 590.282 545.799 590.878 545.027C603.886 528.161 611.623 507.022 611.623 484.075C611.623 464.823 606.177 446.844 596.741 431.592C596.269 430.831 596.331 429.851 596.907 429.165L711.482 292.619ZM559.501 396.326C560.369 396.8 561.454 396.607 562.09 395.849L714.622 214.069C714.931 213.7 715.101 213.233 715.101 212.752V180.266C715.101 179.309 714.439 178.478 713.504 178.273C701.241 175.572 686.874 173.188 671.556 170.646C601.654 159.046 511.944 144.159 511.944 80.9355C511.944 144.136 422.028 159.035 352.035 170.633C336.666 173.18 322.257 175.568 309.971 178.273C309.036 178.478 308.374 179.309 308.374 180.266V210.16C308.374 210.642 308.544 211.108 308.854 211.477L462.885 395.044C463.512 395.791 464.578 395.991 465.442 395.538C479.28 388.288 495.029 384.187 511.734 384.187C529.037 384.187 545.311 388.586 559.501 396.326ZM433.603 548.974C434.238 548.217 434.24 547.115 433.624 546.343C419.993 529.267 411.846 507.623 411.846 484.075C411.846 464.208 417.646 445.696 427.645 430.139C428.136 429.374 428.082 428.378 427.498 427.681L311.993 290.028C310.763 288.563 308.374 289.432 308.374 291.345V692.586C308.374 694.499 310.763 695.368 311.993 693.903L433.603 548.974ZM474.8 576.914C473.969 576.583 473.015 576.813 472.44 577.499L320.733 758.297C320.231 758.894 320.114 759.73 320.434 760.441C339.753 803.301 377.33 826.981 414.862 850.634C452.595 874.412 490.283 898.163 509.331 941.346C510.107 943.107 512.751 943.03 513.432 941.231C530.012 897.409 568.425 873.614 607.418 849.458C645.547 825.838 684.231 801.874 703.6 758.506C703.917 757.796 703.799 756.964 703.299 756.368L552.654 576.836C552.069 576.14 551.098 575.914 550.259 576.264C538.404 581.224 525.389 583.964 511.734 583.964C498.688 583.964 486.225 581.463 474.8 576.914Z" fill="url(#paint1_linear_31_1217)" fill-opacity="0.2"/>
<path d="M671.556 170.646L670.131 179.237L670.131 179.237L671.556 170.646ZM352.035 170.633L353.459 179.224L353.459 179.224L352.035 170.633ZM414.862 850.634L410.219 858.001L410.219 858.001L414.862 850.634ZM607.418 849.458L612.004 856.861L612.004 856.861L607.418 849.458ZM552.654 576.836L559.324 571.238L552.654 576.836ZM550.259 576.264L546.898 568.231L550.259 576.264ZM472.44 577.499L465.769 571.902L472.44 577.499ZM474.8 576.914L471.579 585.004L474.8 576.914ZM320.733 758.297L314.062 752.699L320.733 758.297ZM320.434 760.441L328.373 756.863L320.434 760.441ZM311.993 693.903L305.322 688.305L311.993 693.903ZM311.993 290.028L318.664 284.43L311.993 290.028ZM427.645 430.139L434.97 434.848L427.645 430.139ZM427.498 427.681L420.827 433.279L427.498 427.681ZM714.622 214.069L707.951 208.471L714.622 214.069ZM433.624 546.343L426.818 551.775L433.624 546.343ZM433.603 548.974L440.273 554.572L433.603 548.974ZM596.741 431.592L604.146 427.011L596.741 431.592ZM596.907 429.165L603.578 434.763L596.907 429.165ZM462.885 395.044L456.214 400.642L462.885 395.044ZM465.442 395.538L461.401 387.824L465.442 395.538ZM703.6 758.506L695.649 754.955L703.6 758.506ZM703.299 756.368L696.628 761.966L703.299 756.368ZM590.92 547.631L584.249 553.229L590.92 547.631ZM590.878 545.027L597.773 550.345L590.878 545.027ZM308.854 211.477L315.525 205.88L308.854 211.477ZM711.482 292.619L718.153 298.217L711.482 292.619ZM562.09 395.849L568.761 401.447L562.09 395.849ZM559.501 396.326L555.331 403.971L559.501 396.326ZM309.971 178.273L308.099 169.768L309.971 178.273ZM509.331 941.346L501.363 944.861L509.331 941.346ZM513.432 941.231L521.577 944.312L513.432 941.231ZM711.482 691.311L704.811 696.909L711.482 691.311ZM723.809 689.994V293.936H706.393V689.994H723.809ZM584.249 553.229L704.811 696.909L718.153 685.714L597.591 542.034L584.249 553.229ZM602.915 484.075C602.915 505.031 595.856 524.313 583.982 539.709L597.773 550.345C611.915 532.01 620.331 509.013 620.331 484.075H602.915ZM589.335 436.174C597.944 450.089 602.915 466.488 602.915 484.075H620.331C620.331 463.159 614.409 443.598 604.146 427.011L589.335 436.174ZM704.811 287.022L590.236 423.568L603.578 434.763L718.153 298.217L704.811 287.022ZM568.761 401.447L721.292 219.666L707.951 208.471L555.419 390.251L568.761 401.447ZM723.809 212.752V180.266H706.393V212.752H723.809ZM715.377 169.768C702.845 167.009 688.234 164.587 672.982 162.055L670.131 179.237C685.514 181.79 699.636 184.136 711.631 186.777L715.377 169.768ZM672.982 162.055C637.755 156.21 598.945 149.722 568.905 137.12C538.831 124.503 520.652 107.188 520.652 80.9355H503.235C503.235 117.907 529.911 139.647 562.168 153.18C594.458 166.727 635.455 173.483 670.131 179.237L672.982 162.055ZM503.235 80.9355C503.235 107.164 485.021 124.48 454.874 137.102C424.769 149.707 385.883 156.197 350.611 162.042L353.459 179.224C388.18 173.471 429.249 166.713 461.6 153.168C493.908 139.641 520.652 117.907 520.652 80.9355H503.235ZM350.611 162.042C335.308 164.578 320.653 167.004 308.099 169.768L311.844 186.777C323.86 184.131 338.023 181.782 353.459 179.224L350.611 162.042ZM299.666 180.266V210.16H317.083V180.266H299.666ZM302.183 217.075L456.214 400.642L469.555 389.446L315.525 205.88L302.183 217.075ZM469.484 403.252C482.105 396.639 496.47 392.895 511.734 392.895V375.478C493.588 375.478 476.456 379.936 461.401 387.824L469.484 403.252ZM511.734 392.895C527.543 392.895 542.388 396.911 555.331 403.971L563.671 388.682C548.235 380.261 530.53 375.478 511.734 375.478V392.895ZM440.43 540.91C427.987 525.321 420.554 505.578 420.554 484.075H403.137C403.137 509.667 412 533.212 426.818 551.775L440.43 540.91ZM420.554 484.075C420.554 465.927 425.847 449.042 434.97 434.848L420.319 425.431C409.444 442.35 403.137 462.489 403.137 484.075H420.554ZM305.322 295.626L420.827 433.279L434.169 422.084L318.664 284.43L305.322 295.626ZM317.083 692.586V291.345H299.666V692.586H317.083ZM426.932 543.377L305.322 688.305L318.664 699.5L440.273 554.572L426.932 543.377ZM327.403 763.894L479.111 583.097L465.769 571.902L314.062 752.699L327.403 763.894ZM419.505 843.266C381.609 819.385 346.448 796.963 328.373 756.863L312.495 764.02C333.059 809.64 373.05 834.578 410.219 858.001L419.505 843.266ZM517.298 937.832C497.011 891.838 456.867 866.811 419.505 843.266L410.219 858.001C448.323 882.013 483.555 904.488 501.363 944.861L517.298 937.832ZM602.832 842.055C564.326 865.909 523.083 891.115 505.287 938.149L521.577 944.312C536.941 903.704 572.523 881.319 612.004 856.861L602.832 842.055ZM695.649 754.955C677.543 795.496 641.354 818.192 602.832 842.055L612.004 856.861C649.74 833.484 690.92 808.252 711.552 762.057L695.649 754.955ZM545.983 582.433L696.628 761.966L709.97 750.771L559.324 571.238L545.983 582.433ZM546.898 568.231C536.089 572.753 524.215 575.256 511.734 575.256V592.672C526.564 592.672 540.72 589.695 553.62 584.298L546.898 568.231ZM511.734 575.256C499.809 575.256 488.439 572.971 478.022 568.823L471.579 585.004C484.012 589.955 497.566 592.672 511.734 592.672V575.256ZM559.324 571.238C556.24 567.562 551.181 566.439 546.898 568.231L553.62 584.298C551.015 585.388 547.899 584.718 545.983 582.433L559.324 571.238ZM479.111 583.097C477.222 585.347 474.166 586.034 471.579 585.004L478.022 568.823C473.772 567.131 468.808 568.28 465.769 571.902L479.111 583.097ZM314.062 752.699C311.422 755.845 310.794 760.244 312.495 764.02L328.373 756.863C329.434 759.216 329.04 761.943 327.403 763.894L314.062 752.699ZM299.666 692.586C299.666 702.629 312.208 707.194 318.664 699.5L305.322 688.305C309.318 683.542 317.083 686.368 317.083 692.586H299.666ZM318.664 284.43C312.209 276.737 299.666 281.302 299.666 291.345H317.083C317.083 297.562 309.318 300.388 305.322 295.626L318.664 284.43ZM434.97 434.848C437.481 430.941 437.255 425.761 434.169 422.084L420.827 433.279C418.91 430.994 418.791 427.808 420.319 425.431L434.97 434.848ZM723.809 180.266C723.809 175.257 720.339 170.861 715.377 169.768L711.631 186.777C708.539 186.096 706.393 183.361 706.393 180.266H723.809ZM721.292 219.666C722.918 217.729 723.809 215.281 723.809 212.752H706.393C706.393 211.186 706.944 209.67 707.951 208.471L721.292 219.666ZM426.818 551.775C424.904 549.378 424.845 545.864 426.932 543.377L440.273 554.572C443.631 550.57 443.576 544.853 440.43 540.91L426.818 551.775ZM604.146 427.011C605.612 429.38 605.467 432.511 603.578 434.763L590.236 423.568C587.195 427.191 586.927 432.282 589.335 436.174L604.146 427.011ZM456.214 400.642C459.527 404.591 465.073 405.562 469.484 403.252L461.401 387.824C464.082 386.419 467.496 386.992 469.555 389.446L456.214 400.642ZM711.552 762.057C713.236 758.287 712.6 753.905 709.97 750.771L696.628 761.966C694.998 760.023 694.599 757.306 695.649 754.955L711.552 762.057ZM597.591 542.034C599.65 544.487 599.622 547.948 597.773 550.345L583.982 539.709C580.941 543.651 580.936 549.28 584.249 553.229L597.591 542.034ZM299.666 210.16C299.666 212.689 300.557 215.137 302.183 217.075L315.525 205.88C316.531 207.079 317.083 208.595 317.083 210.16H299.666ZM723.809 293.936C723.809 283.893 711.267 279.328 704.811 287.022L718.153 298.217C714.157 302.979 706.393 300.154 706.393 293.936H723.809ZM555.419 390.251C557.506 387.764 560.979 387.213 563.671 388.682L555.331 403.971C559.76 406.387 565.402 405.449 568.761 401.447L555.419 390.251ZM308.099 169.768C303.136 170.861 299.666 175.257 299.666 180.266H317.083C317.083 183.361 314.936 186.096 311.844 186.777L308.099 169.768ZM501.363 944.861C505.305 953.799 518.156 953.352 521.577 944.312L505.287 938.149C506.385 935.247 509.051 933.979 511.169 933.919C513.29 933.858 516.039 934.977 517.298 937.832L501.363 944.861ZM706.393 689.994C706.393 683.777 714.157 680.951 718.153 685.714L704.811 696.909C711.267 704.602 723.809 700.037 723.809 689.994H706.393Z" fill="url(#paint2_linear_31_1217)"/>
<path d="M671.556 170.646L670.131 179.237L670.131 179.237L671.556 170.646ZM352.035 170.633L353.459 179.224L353.459 179.224L352.035 170.633ZM414.862 850.634L410.219 858.001L410.219 858.001L414.862 850.634ZM607.418 849.458L612.004 856.861L612.004 856.861L607.418 849.458ZM552.654 576.836L559.324 571.238L552.654 576.836ZM550.259 576.264L546.898 568.231L550.259 576.264ZM472.44 577.499L465.769 571.902L472.44 577.499ZM474.8 576.914L471.579 585.004L474.8 576.914ZM320.733 758.297L314.062 752.699L320.733 758.297ZM320.434 760.441L328.373 756.863L320.434 760.441ZM311.993 693.903L305.322 688.305L311.993 693.903ZM311.993 290.028L318.664 284.43L311.993 290.028ZM427.645 430.139L434.97 434.848L427.645 430.139ZM427.498 427.681L420.827 433.279L427.498 427.681ZM714.622 214.069L707.951 208.471L714.622 214.069ZM433.624 546.343L426.818 551.775L433.624 546.343ZM433.603 548.974L440.273 554.572L433.603 548.974ZM596.741 431.592L604.146 427.011L596.741 431.592ZM596.907 429.165L603.578 434.763L596.907 429.165ZM462.885 395.044L456.214 400.642L462.885 395.044ZM465.442 395.538L461.401 387.824L465.442 395.538ZM703.6 758.506L695.649 754.955L703.6 758.506ZM703.299 756.368L696.628 761.966L703.299 756.368ZM590.92 547.631L584.249 553.229L590.92 547.631ZM590.878 545.027L597.773 550.345L590.878 545.027ZM308.854 211.477L315.525 205.88L308.854 211.477ZM711.482 292.619L718.153 298.217L711.482 292.619ZM562.09 395.849L568.761 401.447L562.09 395.849ZM559.501 396.326L555.331 403.971L559.501 396.326ZM309.971 178.273L308.099 169.768L309.971 178.273ZM509.331 941.346L501.363 944.861L509.331 941.346ZM513.432 941.231L521.577 944.312L513.432 941.231ZM711.482 691.311L704.811 696.909L711.482 691.311ZM723.809 689.994V293.936H706.393V689.994H723.809ZM584.249 553.229L704.811 696.909L718.153 685.714L597.591 542.034L584.249 553.229ZM602.915 484.075C602.915 505.031 595.856 524.313 583.982 539.709L597.773 550.345C611.915 532.01 620.331 509.013 620.331 484.075H602.915ZM589.335 436.174C597.944 450.089 602.915 466.488 602.915 484.075H620.331C620.331 463.159 614.409 443.598 604.146 427.011L589.335 436.174ZM704.811 287.022L590.236 423.568L603.578 434.763L718.153 298.217L704.811 287.022ZM568.761 401.447L721.292 219.666L707.951 208.471L555.419 390.251L568.761 401.447ZM723.809 212.752V180.266H706.393V212.752H723.809ZM715.377 169.768C702.845 167.009 688.234 164.587 672.982 162.055L670.131 179.237C685.514 181.79 699.636 184.136 711.631 186.777L715.377 169.768ZM672.982 162.055C637.755 156.21 598.945 149.722 568.905 137.12C538.831 124.503 520.652 107.188 520.652 80.9355H503.235C503.235 117.907 529.911 139.647 562.168 153.18C594.458 166.727 635.455 173.483 670.131 179.237L672.982 162.055ZM503.235 80.9355C503.235 107.164 485.021 124.48 454.874 137.102C424.769 149.707 385.883 156.197 350.611 162.042L353.459 179.224C388.18 173.471 429.249 166.713 461.6 153.168C493.908 139.641 520.652 117.907 520.652 80.9355H503.235ZM350.611 162.042C335.308 164.578 320.653 167.004 308.099 169.768L311.844 186.777C323.86 184.131 338.023 181.782 353.459 179.224L350.611 162.042ZM299.666 180.266V210.16H317.083V180.266H299.666ZM302.183 217.075L456.214 400.642L469.555 389.446L315.525 205.88L302.183 217.075ZM469.484 403.252C482.105 396.639 496.47 392.895 511.734 392.895V375.478C493.588 375.478 476.456 379.936 461.401 387.824L469.484 403.252ZM511.734 392.895C527.543 392.895 542.388 396.911 555.331 403.971L563.671 388.682C548.235 380.261 530.53 375.478 511.734 375.478V392.895ZM440.43 540.91C427.987 525.321 420.554 505.578 420.554 484.075H403.137C403.137 509.667 412 533.212 426.818 551.775L440.43 540.91ZM420.554 484.075C420.554 465.927 425.847 449.042 434.97 434.848L420.319 425.431C409.444 442.35 403.137 462.489 403.137 484.075H420.554ZM305.322 295.626L420.827 433.279L434.169 422.084L318.664 284.43L305.322 295.626ZM317.083 692.586V291.345H299.666V692.586H317.083ZM426.932 543.377L305.322 688.305L318.664 699.5L440.273 554.572L426.932 543.377ZM327.403 763.894L479.111 583.097L465.769 571.902L314.062 752.699L327.403 763.894ZM419.505 843.266C381.609 819.385 346.448 796.963 328.373 756.863L312.495 764.02C333.059 809.64 373.05 834.578 410.219 858.001L419.505 843.266ZM517.298 937.832C497.011 891.838 456.867 866.811 419.505 843.266L410.219 858.001C448.323 882.013 483.555 904.488 501.363 944.861L517.298 937.832ZM602.832 842.055C564.326 865.909 523.083 891.115 505.287 938.149L521.577 944.312C536.941 903.704 572.523 881.319 612.004 856.861L602.832 842.055ZM695.649 754.955C677.543 795.496 641.354 818.192 602.832 842.055L612.004 856.861C649.74 833.484 690.92 808.252 711.552 762.057L695.649 754.955ZM545.983 582.433L696.628 761.966L709.97 750.771L559.324 571.238L545.983 582.433ZM546.898 568.231C536.089 572.753 524.215 575.256 511.734 575.256V592.672C526.564 592.672 540.72 589.695 553.62 584.298L546.898 568.231ZM511.734 575.256C499.809 575.256 488.439 572.971 478.022 568.823L471.579 585.004C484.012 589.955 497.566 592.672 511.734 592.672V575.256ZM559.324 571.238C556.24 567.562 551.181 566.439 546.898 568.231L553.62 584.298C551.015 585.388 547.899 584.718 545.983 582.433L559.324 571.238ZM479.111 583.097C477.222 585.347 474.166 586.034 471.579 585.004L478.022 568.823C473.772 567.131 468.808 568.28 465.769 571.902L479.111 583.097ZM314.062 752.699C311.422 755.845 310.794 760.244 312.495 764.02L328.373 756.863C329.434 759.216 329.04 761.943 327.403 763.894L314.062 752.699ZM299.666 692.586C299.666 702.629 312.208 707.194 318.664 699.5L305.322 688.305C309.318 683.542 317.083 686.368 317.083 692.586H299.666ZM318.664 284.43C312.209 276.737 299.666 281.302 299.666 291.345H317.083C317.083 297.562 309.318 300.388 305.322 295.626L318.664 284.43ZM434.97 434.848C437.481 430.941 437.255 425.761 434.169 422.084L420.827 433.279C418.91 430.994 418.791 427.808 420.319 425.431L434.97 434.848ZM723.809 180.266C723.809 175.257 720.339 170.861 715.377 169.768L711.631 186.777C708.539 186.096 706.393 183.361 706.393 180.266H723.809ZM721.292 219.666C722.918 217.729 723.809 215.281 723.809 212.752H706.393C706.393 211.186 706.944 209.67 707.951 208.471L721.292 219.666ZM426.818 551.775C424.904 549.378 424.845 545.864 426.932 543.377L440.273 554.572C443.631 550.57 443.576 544.853 440.43 540.91L426.818 551.775ZM604.146 427.011C605.612 429.38 605.467 432.511 603.578 434.763L590.236 423.568C587.195 427.191 586.927 432.282 589.335 436.174L604.146 427.011ZM456.214 400.642C459.527 404.591 465.073 405.562 469.484 403.252L461.401 387.824C464.082 386.419 467.496 386.992 469.555 389.446L456.214 400.642ZM711.552 762.057C713.236 758.287 712.6 753.905 709.97 750.771L696.628 761.966C694.998 760.023 694.599 757.306 695.649 754.955L711.552 762.057ZM597.591 542.034C599.65 544.487 599.622 547.948 597.773 550.345L583.982 539.709C580.941 543.651 580.936 549.28 584.249 553.229L597.591 542.034ZM299.666 210.16C299.666 212.689 300.557 215.137 302.183 217.075L315.525 205.88C316.531 207.079 317.083 208.595 317.083 210.16H299.666ZM723.809 293.936C723.809 283.893 711.267 279.328 704.811 287.022L718.153 298.217C714.157 302.979 706.393 300.154 706.393 293.936H723.809ZM555.419 390.251C557.506 387.764 560.979 387.213 563.671 388.682L555.331 403.971C559.76 406.387 565.402 405.449 568.761 401.447L555.419 390.251ZM308.099 169.768C303.136 170.861 299.666 175.257 299.666 180.266H317.083C317.083 183.361 314.936 186.096 311.844 186.777L308.099 169.768ZM501.363 944.861C505.305 953.799 518.156 953.352 521.577 944.312L505.287 938.149C506.385 935.247 509.051 933.979 511.169 933.919C513.29 933.858 516.039 934.977 517.298 937.832L501.363 944.861ZM706.393 689.994C706.393 683.777 714.157 680.951 718.153 685.714L704.811 696.909C711.267 704.602 723.809 700.037 723.809 689.994H706.393Z" fill="url(#paint3_linear_31_1217)" fill-opacity="0.2"/>
<circle cx="512.25" cy="483.564" r="66.5925" fill="#C60000"/>
<path d="M472.422 495.71L483.733 495.71C489.978 495.71 495.041 490.646 495.04 484.403C495.041 482.078 494.334 479.922 493.136 478.128C504.206 470.545 522.31 470.508 530.949 478.018C529.702 479.834 528.964 482.031 528.966 484.401C528.966 490.646 534.029 495.71 540.274 495.71L551.584 495.711C557.828 495.711 562.892 490.648 562.892 484.403C562.892 450.475 461.115 450.475 461.115 484.403C461.115 490.644 466.179 495.708 472.422 495.71Z" fill="#CFCFCF"/>
<defs>
<linearGradient id="paint0_linear_31_1217" x1="511.738" y1="80.9355" x2="511.738" y2="942.625" gradientUnits="userSpaceOnUse">
<stop stop-color="#000216"/>
<stop offset="0.595" stop-color="#090C29"/>
<stop offset="0.655" stop-color="#080B24"/>
<stop offset="1" stop-color="#050509"/>
</linearGradient>
<linearGradient id="paint1_linear_31_1217" x1="72.2272" y1="512.25" x2="946.638" y2="512.25" gradientUnits="userSpaceOnUse">
<stop stop-color="#DAD9DE"/>
<stop offset="1" stop-opacity="0"/>
</linearGradient>
<linearGradient id="paint2_linear_31_1217" x1="511.738" y1="80.9355" x2="511.738" y2="942.625" gradientUnits="userSpaceOnUse">
<stop stop-color="#000216"/>
<stop offset="0.595" stop-color="#090C29"/>
<stop offset="0.655" stop-color="#080B24"/>
<stop offset="1" stop-color="#050509"/>
</linearGradient>
<linearGradient id="paint3_linear_31_1217" x1="68.6414" y1="512.25" x2="946.638" y2="512.25" gradientUnits="userSpaceOnUse">
<stop stop-color="#DAD6F8"/>
<stop offset="1" stop-opacity="0"/>
<stop offset="1" stop-opacity="0"/>
</linearGradient>
</defs>
</svg>
