<svg width="750" height="500" viewBox="0 0 750 500" fill="none" xmlns="http://www.w3.org/2000/svg">
<g clip-path="url(#clip0_23_1225)">
<path d="M346.278 110.051C92.4359 33.0503 15.6773 357.247 132.499 481H517.601C520.123 481 522.609 480.112 524.541 478.491C601.178 414.176 608.501 322.546 588.395 259.116C576.871 222.761 535.593 237.529 499.16 248.806C439.631 267.232 365.674 186.363 354.976 120.349C354.207 115.608 350.873 111.445 346.278 110.051Z" fill="#B595D6"/>
<path d="M366.04 88.9051C78.2591 -7.86134 -22.0436 348.428 108.527 489H538.725C541.277 489 543.798 488.084 545.741 486.429C635.504 409.955 629.177 300.882 596.654 229.678C580.777 194.919 539.739 210.126 504.211 224.197C448.877 246.113 384.363 172.699 374.344 99.1574C373.71 94.5038 370.492 90.402 366.04 88.9051Z" stroke="#3F0F6F" stroke-width="9"/>
<path d="M157.5 330L111.5 438L175 435L192 400.5L190.5 437L187.5 447.5L190.676 471.5H353L356 403L394 438L358.5 320C345.3 301.2 332.667 297.167 328 297.5C352.4 229.9 335.5 180.667 324 164.501C268 138.901 226.333 151.501 212.5 161.001C187.7 196.201 205.5 264 217.5 293.5C177.1 291.5 160.667 317 157.5 330Z" fill="#0B031C"/>
<rect x="117" y="481" width="402" height="19" rx="7" fill="black"/>
<path d="M367.462 275.53L346.202 212.895C345.847 211.849 344.711 211.289 343.665 211.644L340.798 212.617C340.016 212.883 339.478 213.585 339.442 214.411C338.378 238.903 335.104 286.319 330 290.358L366.211 278.066C367.257 277.711 367.817 276.576 367.462 275.53Z" fill="#F2F2F2"/>
<path d="M329.044 290.682L330 290.358M330 290.358L366.211 278.066C367.257 277.711 367.817 276.576 367.462 275.53L346.202 212.895C345.847 211.849 344.711 211.289 343.665 211.644L340.798 212.617C340.016 212.883 339.478 213.585 339.442 214.411C338.378 238.903 335.104 286.319 330 290.358Z" stroke="#16013D" stroke-width="4"/>
<path d="M349 290L345 257.5C347 251.167 351.6 238 354 236C356.4 234 362.667 238.833 365.5 241.5L374 281.5L439 403.5L445.5 410.5C448.667 414.333 450.9 425.8 434.5 441C418.1 456.201 400.333 444.667 393.5 437L349 290Z" fill="#FF9662"/>
<path d="M259 284C260.6 306.8 275.667 318.833 283 322C292.2 319.2 298.167 307.5 300 302V287C322.4 285.4 329.667 258.667 330.5 245.5V197.5H318.5C303.7 207.1 290 207.167 285 206C275.4 208.4 265.334 230.667 261.5 241.5C260 246.167 257.4 261.2 259 284Z" fill="#FF9662"/>
<path d="M465 344L409 471.5H283.5V481.5H489.5L550 344H465Z" fill="#220E36"/>
<path d="M268.5 452.001L143 427.001C120.6 421.801 111 435.835 109 443.501C108.667 443.501 108 446.701 108 459.501C108 472.301 122.333 478.834 129.5 480.501H293L308.5 469.501C315.5 473.168 331.7 479.501 340.5 475.501C349.3 471.501 347.167 464.168 345 461.001L319.5 442.001L314.5 441.001C304.333 444.001 283 450.401 279 452.001C275 453.601 270.333 452.668 268.5 452.001Z" fill="#FF9662"/>
<path fill-rule="evenodd" clip-rule="evenodd" d="M334 215.5C315.5 222 282.833 219.667 267 216.5L261.5 241C277.9 253 295 245 301.5 239.5H307C317.5 250.5 328 245 334 239.5V215.5ZM292 232C292 235.314 287.747 238 282.5 238C277.253 238 273 235.314 273 232C273 228.686 277.253 226 282.5 226C287.747 226 292 228.686 292 232ZM320 237C324.971 237 329 234.538 329 231.5C329 228.462 324.971 226 320 226C315.029 226 311 228.462 311 231.5C311 234.538 315.029 237 320 237Z" fill="#0B031C"/>
<path fill-rule="evenodd" clip-rule="evenodd" d="M300 287.035V290.675C284.544 295.931 268.106 288.117 262.5 283.5C269.867 287.929 290.58 287.677 300 287.035ZM330.5 200.019C318.353 200.258 313.421 202.685 308.581 205.067C302.771 207.926 297.094 210.72 279.228 209.583C281.135 207.759 283.077 206.481 285 206C290 207.167 303.7 207.1 318.5 197.5H330.5V200.019Z" fill="#ED6E3B"/>
<ellipse cx="489.995" cy="396.702" rx="5.5" ry="6.5" transform="rotate(15 489.995 396.702)" fill="white"/>
<path d="M471 344.5H465L407.5 471.5L402.5 481.5H409L413.5 471.5L471 344.5Z" fill="#AD2BDB"/>
<path d="M639 32C611.5 69.5 575 112.5 540 131L549 139.5C582.5 117.5 621.5 81 648 45L639 32Z" fill="#FF0F00"/>
<path d="M630.834 140.044C615.804 99.098 588.308 74.6394 554.404 54.6456L545.985 64.9589C582.097 82.6342 600.97 102.333 618.208 140.96L630.834 140.044Z" fill="#FF0F00"/>
<path fill-rule="evenodd" clip-rule="evenodd" d="M659 97.5C659 135.884 627.884 167 589.5 167C551.116 167 520 135.884 520 97.5C520 59.1162 551.116 28 589.5 28C597.375 28 604.943 29.3096 612 31.7229V23.3166C604.879 21.1597 597.325 20 589.5 20C546.698 20 512 54.6979 512 97.5C512 140.302 546.698 175 589.5 175C632.302 175 667 140.302 667 97.5C667 91.8376 666.393 86.3171 665.24 81H657.03C658.317 86.2889 659 91.8147 659 97.5Z" fill="#FF0F00"/>
</g>
<defs>
<clipPath id="clip0_23_1225">
<rect width="750" height="500" fill="white"/>
</clipPath>
</defs>
</svg>
