<svg width="750" height="500" viewBox="0 0 750 500" fill="none" xmlns="http://www.w3.org/2000/svg">
<g clip-path="url(#clip0_23_1202)">
<path d="M256 99.5073L340.473 233.007M511 502.507L340.473 233.007M550.5 333.507L262 478.616M214.5 502.507L262 478.616M262 478.616L340.473 233.007" stroke="#DBA89C" stroke-width="19" stroke-linecap="round"/>
<path d="M553 331.508H361C325.918 369.017 290.866 378.331 257.5 369.33C299.5 389.889 410.6 415.908 553 331.508Z" fill="#398017"/>
<path d="M59.5 98.5073H257.5C277.511 171.443 323.995 285.646 401.613 331.507H550C491.536 360.808 442.298 355.546 401.613 331.507H361C233.8 467.507 107 232.841 59.5 98.5073Z" fill="#4EAA23"/>
<path d="M57.5 98.5073L141.973 232.007M312.5 501.507L141.973 232.007M352 332.507L63.5 477.616M16 501.507L63.5 477.616M63.5 477.616L141.973 232.007" stroke="#F1E0DA" stroke-width="19" stroke-linecap="round"/>
<path d="M210 20.0075L218.5 70.5075L265 44.0073L272.5 18.5073C271.5 18.5073 269.7 17.7073 270.5 14.5073C271.3 11.3073 272.167 5.84066 272.5 3.50732C266.167 3.34072 248.9 2.10752 230.5 -1.49248C212.1 -5.09248 209.167 11.3409 210 20.0075Z" fill="#230F03"/>
<path d="M211 121.008C206.6 118.608 195.167 120.008 190 121.008L204.5 158.007L249 163.507L261.5 140.507L242.5 122.507L234.5 121.008L238 99.5073C245.6 103.507 253.167 95.5073 256 91.0073C258 89.4073 262.5 58.0073 264.5 42.5073L266 21.5073L228.5 23.5073V50.5076C226.9 54.1077 225.167 52.0076 224.5 50.5076C216 25.5073 207.5 48.5073 220 57.5076L211 121.008Z" fill="#FBB59C"/>
<path d="M279.5 335.508L179 121.008C254.6 187.808 254.167 148.841 244.5 121.008L313.5 215.008L353 291.508L279.5 335.508Z" fill="white"/>
<path d="M330 274.008L285.5 296.5C276 305.833 267.5 326.208 261.5 329.008C255.5 331.808 253 359.174 252.5 372.508L306.75 352.008L333.875 341.758L361 331.508H402H423L453 333.508L521 260.508L330 274.008Z" fill="#BA8C57"/>
<path d="M130.5 162.508V242.008L173.5 262.508C203.1 347.308 239.333 374 253 376L260.5 333.5C275.5 323.333 304 297.808 298 297.008C292 296.208 270.5 260.008 260.5 242.008C256.333 237.175 246.2 220.708 239 193.508C231.8 166.308 203.667 133.508 190.5 120.508C146.9 115.308 132.333 146.341 130.5 162.508Z" fill="#2AAECB"/>
<path d="M355.5 267.508L336 278.508C296 201.708 254.667 141.175 239 120.508C271.8 120.508 305.667 158.508 318.5 177.508L355.5 267.508Z" fill="#2AAECB"/>
<path d="M130.5 242L142 247.5C142 247 142.167 242.667 142.5 240.5H130.5V242Z" fill="#1B859C"/>
<path d="M184 254L190 253.481C190 252.963 189.667 242.747 190 240.5H184V254Z" fill="#1B859C"/>
<path d="M272.5 47.5073L224.5 44.0073V45.5073L233 47.0073V51.0073C232.5 63.0073 251 60.5073 251.5 52.0073V47.5073H256.5V51.0073C256.5 66.5073 272.5 63.5073 272.5 52.0073V47.5073Z" fill="black"/>
<path d="M323.082 94.8956L323.396 94.424L323 94.0184L302.5 73.0183L301.897 72.3998L301.417 73.1191C296.302 80.7917 296.19 88.6871 301.504 94.0019C304.629 97.1261 308.915 98.9453 312.955 99.2059C316.989 99.4662 320.9 98.1694 323.082 94.8956Z" fill="#FDB935" stroke="#C39728" stroke-width="1.4"/>
<path d="M310 86.5L304.5 91.5M306.5 83.5H301.5M313 90.5V95" stroke="#CE9C1B" stroke-width="1.4" stroke-linecap="round"/>
<path d="M249.5 73.0073L282 76.5073L288.5 104.007" stroke="#B01313" stroke-width="2"/>
<path d="M311.5 94.5073L275.5 95.5073L284.5 170.507H308L311.5 94.5073Z" fill="#FEA73D"/>
<path d="M589 436.5L569 409L561 483L568.5 495L614.5 491.008L673.5 466.008L711.5 455.008L733.5 432.008L731.5 424.5L734.5 412L724.5 411.508L589 436.5Z" fill="#DF726D"/>
<path d="M494.503 304.508H501.899C491.757 287.544 520.907 266.598 532 259L468.62 264.219C463.513 267.046 455.097 272.701 462.281 272.701C469.465 272.701 486.756 293.905 494.503 304.508Z" fill="#DF726D"/>
<path d="M220 72.5C219.2 91.7 231.667 98.5 238 99.5L236.5 109L215 93L218 72L219 65L220 72.5Z" fill="url(#paint0_radial_23_1202)"/>
<path d="M546 459.508L565.5 490.008C572.3 472.008 571.667 429.841 570.5 411.008L473 279.508C470 277.508 460.2 272.508 445 268.508C429.8 264.508 423.667 308.508 422.5 331.008H433.5L546 459.508Z" fill="#FBB59C"/>
<path d="M577.5 412.008C549.5 356.808 509.833 317.674 495 304.007C496.833 290.674 506.1 261.007 522.5 261.007C543.3 251.807 562 270.174 568 280.008C580.667 302.174 608.1 354.308 616.5 385.508C624.9 416.708 652.144 413.926 665.5 412.008C676 410.5 728 408 734.5 412.008C699.3 420.008 681.5 431.008 677 435.508C579.8 439.108 589.167 471.008 606 486.508L595 481.008C591.4 463.808 581.833 427.841 577.5 412.008Z" fill="#FBB59C"/>
<path d="M142.5 240.508H184.5V253.008C204.667 248.841 257 239.708 305 236.508C348.479 233.609 372.539 247.995 381.269 257.668C382.528 259.062 381.902 261.176 380.141 261.829C372.609 264.625 359.579 268.508 349 268.508C336.6 268.508 329.5 263.174 327.5 260.508H295L260 277.008C239 283.508 213.5 290.008 174 297.508C142.4 303.508 139.833 262.008 142.5 240.508Z" fill="#FBB59C"/>
<path d="M310.16 119.832L298.952 117.59C297.425 117.285 296 118.453 296 120.011C296 121.172 296.809 122.176 297.944 122.423L305.943 124.162C306.917 124.373 307.722 125.054 308.092 125.979L308.235 126.336C308.351 126.627 308.104 126.932 307.796 126.879L293.88 124.494C292.375 124.236 291 125.395 291 126.922C291 128.123 291.865 129.148 293.048 129.351L306.143 131.596C307.201 131.777 307.677 133.029 307.006 133.868C306.693 134.259 306.195 134.455 305.699 134.382L292.071 132.378C290.716 132.179 289.5 133.229 289.5 134.599C289.5 135.696 290.293 136.632 291.375 136.813L307.381 139.48C307.46 139.493 307.536 139.518 307.608 139.554C308.432 139.966 308.02 141.216 307.112 141.057L297.563 139.386C295.776 139.073 294.542 141.125 295.656 142.557C295.881 142.847 296.182 143.068 296.525 143.197L306.723 147.021C307.534 147.325 308.175 147.966 308.479 148.777L311 155.5L319.5 183.008L331.081 239.948C331.333 241.185 332.331 242.132 333.58 242.317L365.059 246.997C366.871 247.266 368.5 245.862 368.5 244.029V224.772C368.5 224.271 368.375 223.777 368.135 223.337L325.733 145.437C325.579 145.153 325.47 144.836 325.412 144.518C321.751 124.448 315.019 119.784 311.838 119.85C311.279 119.862 310.709 119.942 310.16 119.832Z" fill="#FBB59C"/>
<path d="M546.5 79L532.5 90.5L556 114.5L587.5 147C587.5 138.5 623.5 74.5 663.5 41L660 33C649.5 36.5 596.5 79 579 104L546.5 79Z" fill="#127F00"/>
<path fill-rule="evenodd" clip-rule="evenodd" d="M659 96.5C659 134.884 627.884 166 589.5 166C551.116 166 520 134.884 520 96.5C520 58.1162 551.116 27 589.5 27C597.375 27 604.943 28.3096 612 30.7229V22.3166C604.879 20.1597 597.325 19 589.5 19C546.698 19 512 53.6979 512 96.5C512 139.302 546.698 174 589.5 174C632.302 174 667 139.302 667 96.5C667 90.8376 666.393 85.3171 665.24 80H657.03C658.317 85.2889 659 90.8147 659 96.5Z" fill="#127F00"/>
</g>
<defs>
<radialGradient id="paint0_radial_23_1202" cx="0" cy="0" r="1" gradientUnits="userSpaceOnUse" gradientTransform="translate(244 75) rotate(140.412) scale(33.738 20.9723)">
<stop stop-color="#DF726D"/>
<stop offset="1" stop-color="#FBB59C"/>
</radialGradient>
<clipPath id="clip0_23_1202">
<rect width="750" height="500" fill="white"/>
</clipPath>
</defs>
</svg>
