<svg width="750" height="500" viewBox="0 0 750 500" fill="none" xmlns="http://www.w3.org/2000/svg">
<path fill-rule="evenodd" clip-rule="evenodd" d="M57.8743 354.729V344.096C73.573 339.94 82.4346 343.088 89.4794 345.59C92.9012 346.806 95.8944 347.869 99.0342 347.869L102.807 347.839H106.861C109.953 347.839 112.901 346.774 116.271 345.557C123.209 343.052 131.936 339.9 147.397 344.061V354.708C144.249 354.708 140.968 357.886 137.318 361.422C132.743 365.855 127.587 370.85 121.386 370.85C116.108 370.85 112.018 366.825 108.95 363.807C107.109 361.995 105.636 360.547 104.496 360.547H102.807L101.435 360.56C100.278 360.56 98.7823 362.007 96.9132 363.816C93.7981 366.83 89.6446 370.85 84.2852 370.85C77.9889 370.85 72.754 365.862 68.108 361.435C64.4019 357.903 61.0705 354.729 57.8743 354.729ZM93.8886 354.384L72.9656 349.239V354.041C74.6806 365.36 88.0576 367.761 93.8886 354.384ZM132.304 349.582L111.038 354.531C116.965 367.399 130.561 365.089 132.304 354.201V349.582Z" fill="black"/>
<path d="M148.083 338H58.5604C49.9855 338 49.6425 320.094 58.5604 320.094H60.9614C68.1644 268.442 140.88 278.428 145.339 320.094H148.083C155.972 320.094 155.972 338 148.083 338Z" fill="black"/>
<path d="M123.588 190.4V183.329C129.118 179.614 134.868 172.914 136.591 164.325C137.105 164.609 137.16 164.793 137.732 164.793C140.472 164.793 142.457 161.246 142.457 156.876C142.457 152.571 140.182 149.085 137.497 148.98C138.014 147.123 138.308 144.635 138.308 141.443C138.308 130.79 129.118 118 108.496 118C90.1685 118 78.7005 130.79 78.7005 141.443C78.7005 144.538 78.8912 147.073 79.2202 149.036C76.7016 149.413 74.7165 152.761 74.7165 156.876C74.7165 161.249 76.9394 164.793 79.6819 164.793C80.2515 164.793 79.7511 164.609 80.2598 164.325C81.9849 172.912 87.6471 179.614 93.1765 183.326V189.978C79.3529 191.756 60 199.45 60 207.147V210.071C60 213 62.9748 213 65.9082 213H148.089C151.025 213 154 213 154 210.073V207.149C154 199.943 137.412 192.751 123.588 190.4Z" fill="#4874E4"/>
<path fill-rule="evenodd" clip-rule="evenodd" d="M206.027 285.302C213.129 285.302 220.52 279.544 222.533 272.442L233.458 233.86C235.466 226.776 231.363 221.028 224.293 221C229.37 221.021 232.873 224.014 233.725 228.311L187.768 256.501C183.839 258.845 178.422 258.813 176.014 256.501L146.38 228.228C149.685 223.961 154.865 221 159.938 221H159.938C152.836 221 145.447 226.758 143.435 233.86L132.51 272.442C130.497 279.544 134.622 285.302 141.724 285.302H206.027Z" fill="#616D75" fill-opacity="0.3"/>
<path d="M169.512 259.184L165.419 255.236L132.777 278.708C132.667 278.798 132.603 278.91 132.503 279C133.079 280.833 134.169 282.354 135.693 283.45C135.805 283.376 135.928 283.344 136.037 283.257L169.512 259.184ZM218.819 279C218.771 278.91 218.768 278.798 218.71 278.711L200.964 255.882L194.462 259.826L212.878 283.257C212.936 283.341 213.042 283.376 213.109 283.45C215.251 282.357 217.205 280.833 218.819 279Z" fill="#484E55" fill-opacity="0.3"/>
<path fill-rule="evenodd" clip-rule="evenodd" d="M224.241 221C231.343 221 235.471 226.758 233.458 233.86L232.613 236.86L190.086 262.465C183.859 266.015 176.924 266.365 171.68 261.272L143.368 234.098L143.435 233.86C145.445 226.767 152.819 221.014 159.913 221C154.848 221.01 149.68 223.968 146.38 228.228L176.014 256.501C178.422 258.813 183.839 258.845 187.768 256.501L233.725 228.311C232.87 224 229.346 221 224.24 221H224.241Z" fill="#484E55" fill-opacity="0.3"/>
<path d="M224.24 221H159.938C154.865 221 149.685 223.961 146.38 228.228L176.014 256.501C178.422 258.813 183.839 258.845 187.768 256.501L233.725 228.311C232.87 224 229.346 221 224.24 221Z" fill="#616D75" fill-opacity="0.3"/>
<path d="M547.25 386.611C545.223 386.611 543.197 385.824 541.645 384.218C524.387 366.354 516.502 302.995 515.647 295.817C515.108 291.326 518.212 287.229 522.55 286.704C526.92 286.147 530.847 289.359 531.353 293.85C534.298 318.761 542.722 362.159 552.855 372.648C553.967 373.793 554.724 375.255 555.032 376.847C555.339 378.439 555.183 380.09 554.582 381.589C553.982 383.089 552.964 384.37 551.658 385.27C550.353 386.17 548.818 386.648 547.25 386.644V386.611Z" fill="#DF726D"/>
<path d="M586.517 368.026L558.808 371.796C552 373.468 546.332 368.321 542.943 362.618L542.405 361.373C538.288 351.998 535.375 342.132 533.76 331.971L527.68 293.654C527.474 291.641 526.524 289.788 525.028 288.484C523.533 287.179 521.608 286.524 519.656 286.655C517.705 286.786 515.878 287.694 514.558 289.188C513.238 290.682 512.527 292.646 512.575 294.67L513.272 334.691C513.272 334.921 513.208 335.15 513.113 335.38C510.643 339.641 508.838 347.573 513.24 361.209C512.765 363.733 511.847 366.06 510.327 370.026C506.273 385.825 517.768 401.329 533.57 401.329H585.852C588.17 401.329 590.393 400.376 592.032 398.679C593.671 396.982 594.592 394.681 594.592 392.282V375.369C594.592 370.944 590.823 367.502 586.548 368.092L586.517 368.026Z" fill="#FBB59C"/>
<path d="M533.665 371.763C531.227 366.256 530.15 358.881 529.01 352.686C528.313 348.556 527.68 344.328 527.11 340.198C526.952 334.953 522.582 330.463 517.483 331.217C515.995 331.25 514.57 331.577 513.208 332.069L513.272 334.888C517.198 333.02 522.012 333.478 523.373 338.362C524.767 350.523 524.735 362.29 528.662 374.09C530.15 377.663 535.28 375.27 533.697 371.763H533.665ZM579.075 396.445H537.212C532.303 396.445 527.427 395.953 522.613 394.937L516.153 393.593C518.394 396.031 521.091 397.971 524.08 399.295C527.069 400.62 530.287 401.3 533.538 401.296H585.82C589.778 401.296 593.103 398.542 594.18 394.806C589.208 395.855 584.173 396.445 579.107 396.445H579.075Z" fill="#DF726D"/>
<path d="M78.6403 267.765L71.3872 260.511C67.383 256.507 60.8893 256.507 56.8872 260.511C55.3955 262.001 54.466 263.837 54.0843 265.756C42.1237 263.52 30.4909 251.935 29.7668 241.58C31.7315 241.215 33.6133 240.279 35.1319 238.758C39.1361 234.754 39.1361 228.26 35.1319 224.256L27.8809 217.003C23.8767 212.999 17.3829 212.999 13.3788 217.003C-8.37643 238.758 56.8851 304.02 78.6403 282.265C82.6424 278.263 82.6424 271.769 78.6403 267.765Z" fill="#616D75" fill-opacity="0.4"/>
<path d="M172 332.5C168.41 332.5 165.5 335.41 165.5 339C165.5 342.59 168.41 345.5 172 345.5V332.5ZM491 345.5H497.5V332.5H491V345.5ZM172 345.5H491V332.5H172V345.5Z" fill="#2F221A"/>
<path d="M172 167H676" stroke="#4874E4" stroke-width="13" stroke-linecap="round"/>
</svg>
